IKResults
version=1
nRows=82
nColumns=5
inDegrees=yes

Units are S.I. units (second, meters, Newtons, ...)
If the header above contains a line with 'inDegrees', this indicates whether rotational values are in degrees (yes) or radians (no).

endheader
time	r_shoulder_elev	r_shoulder_side	r_elbow_flex	r_elbow_rotation
      3.26667000	     62.54332051	    -28.11518604	    104.77526625	      3.49165329
      3.28333000	     62.45007105	    -27.78606248	    105.44156441	      3.49106878
      3.30000000	     62.37528024	    -21.54884796	    115.27588721	      3.49171794
      3.31667000	     65.83481775	     -9.70911224	    128.82974823	      3.49181796
      3.33333000	     68.60234092	     -0.23811655	    134.71676852	      3.49104223
      3.35000000	     67.13354996	     -1.73674078	    134.64071270	      3.49114161
      3.36667000	     66.64468441	     -0.80423645	    135.88283925	      3.49127756
      3.38333000	     66.02080362	     -3.91154250	    134.25694153	      3.49287575
      3.40000000	     67.91315598	     -1.68846362	    135.39346012	      3.49202069
      3.41667000	     67.27353034	     -2.69869638	    135.18995421	      3.49169838
      3.43333000	     66.02694815	     -6.18947525	    133.05151950	      3.49220838
      3.45000000	     61.94600724	    -30.66280024	    101.37191653	      3.49347269
      3.46667000	     63.06417617	    -25.27456991	    111.52161723	      3.49167171
      3.48333000	     67.20768531	     -7.47249097	    131.70825366	      3.48978008
      3.50000000	     64.87572581	    -12.45924955	    127.71690801	      3.49214871
      3.51667000	     61.77276255	    -29.65143866	    103.20867281	      3.49253123
      3.53333000	     62.07240232	    -32.08265584	     98.82953856	      3.49320397
      3.55000000	     62.88506302	    -31.71577218	    100.52825797	      3.49302478
      3.56667000	     62.54740224	    -32.78158230	     97.99973066	      3.49229600
      3.58333000	     62.58686448	    -34.32006936	     94.81442943	      3.49184123
      3.60000000	     62.72210034	    -34.57490677	     94.48206806	      3.49191094
      3.61667000	     63.33868835	    -26.21159493	    110.25556419	      3.49105857
      3.63333000	     64.57575305	    -15.11000415	    124.93698529	      3.49144571
      3.65000000	     64.67811958	    -12.08995372	    127.97333847	      3.49211032
      3.66667000	     64.51655381	    -10.60269394	    129.42564823	      3.49183222
      3.68333000	     64.54258031	     -8.79242764	    131.05768218	      3.49170126
      3.70000000	     64.72216866	     -7.69578885	    131.99563723	      3.49144021
      3.71667000	     64.90078844	     -6.85058140	    132.65950554	      3.49126973
      3.73333000	     64.96620413	     -6.29595539	    133.06765444	      3.49284300
      3.75000000	     65.41269884	     -4.93044130	    133.99599411	      3.49143406
      3.76667000	     65.15085063	     -4.88022341	    133.94396570	      3.49205321
      3.78333000	     65.13484924	     -5.18851581	    133.51258627	      3.49314782
      3.80000000	     64.87880461	     -5.75573811	    132.89403921	      3.49181247
      3.81667000	     61.66330920	    -17.54074384	    121.11348443	      3.49217386
      3.83333000	     62.90746694	    -14.78242473	    124.44371266	      3.49155904
      3.85000000	     61.86212446	    -37.40840189	     86.58231954	      3.49234069
      3.86667000	     62.59164882	    -39.20471625	     82.76232890	      3.49187476
      3.88333000	     62.97081599	    -37.82136618	     85.94040041	      3.49215627
      3.90000000	     63.14312459	    -37.65287436	     85.99169391	      3.49953007
      3.91667000	     63.57311513	    -36.12416744	     89.75505788	      3.49163233
      3.93333000	     62.95534479	    -33.34140377	     94.55798108	      3.49186043
      3.95000000	     64.57336939	    -14.12852116	    121.79163571	      3.49073369
      3.96667000	     67.56414147	     -3.65012426	    129.22944169	      3.48919684
      3.98333000	     68.34982975	     -0.06002308	    131.00050071	      3.49091167
      4.00000000	     63.88709392	    -25.37706338	    104.70994700	      3.49255084
      4.01667000	     64.85243244	    -27.12528969	    101.16024102	      3.49194034
      4.03333000	     66.05475289	    -32.49596487	     92.36455407	      3.49265895
      4.05000000	     66.21363931	    -29.58099004	     96.46035483	      3.49167069
      4.06667000	     66.82423304	    -24.61554307	    103.61785382	      3.48975675
      4.08333000	     67.46729899	    -17.13302399	    112.31034567	      3.49189561
      4.10000000	     67.18099771	    -20.37962531	    105.01462310	      3.49223886
      4.11667000	     67.07404883	    -21.80527497	    102.07911603	      3.49340572
      4.13333000	     67.23774341	    -22.70829954	    100.52295168	      3.49102929
      4.15000000	     67.22609927	    -20.91979930	    102.69184306	      3.49178758
      4.16667000	     67.00697806	    -20.00330263	    102.26885628	      3.49169028
      4.18333000	     67.61398972	    -10.62229550	    109.69096720	      3.49190546
      4.20000000	     67.72055480	     -8.65842906	    110.73249375	      3.49189708
      4.21667000	     67.63324514	    -11.22625573	    107.96207152	      3.49238430
      4.23333000	     67.64617451	    -12.72757657	    106.22921870	      3.49106062
      4.25000000	     68.19191132	    -13.94865908	    103.40136011	      3.49433773
      4.26667000	     69.01455219	    -11.06214043	    105.09035101	      3.49156503
      4.28333000	     71.08634466	     -3.95698733	    106.42729617	      3.49128607
      4.30000000	     71.66396490	     -2.15744665	    106.61322518	      3.49138630
      4.31667000	     73.45184233	      6.47622047	    110.27241736	      3.49106711
      4.33333000	     72.83308951	      3.86415113	    109.17274797	      3.49198754
      4.35000000	     72.04106295	      3.28478154	    108.91635050	      3.49183970
      4.36667000	     71.79088023	      2.40179661	    107.99767849	      3.49287540
      4.38333000	     72.95706443	      7.72017167	    110.04148729	      3.49131917
      4.40000000	     74.24444774	      9.63741346	    107.01977549	      3.49225526
      4.41667000	     76.74606757	     17.70434129	    106.75362007	      3.49257619
      4.43333000	     77.75303905	     21.15243963	    106.00824388	      3.49198547
      4.45000000	     79.54229430	     25.31094860	    103.30520517	      3.49733023
      4.46667000	     79.42239628	     24.77432255	    103.12796652	      3.49273573
      4.48333000	     79.99285928	     25.48718658	    102.32622606	      3.49377750
      4.50000000	     78.69246671	     21.81375516	    101.06230061	      3.49388702
      4.51667000	     78.53666803	     20.37932771	     99.92208035	      3.49383513
      4.53333000	     78.53504601	     19.46272023	     99.10838593	      3.49139089
      4.55000000	     78.80368780	     20.30699894	     98.87566659	      3.49178684
      4.56667000	     78.65081398	     19.30728969	     98.09348913	      3.49309921
      4.58333000	     78.14201763	     19.62936287	     95.14677948	      3.49235235
      4.60000000	     77.86877571	     20.08259217	     94.78549191	      3.49159626
      4.61667000	     77.51247721	     20.52328126	     95.01753229	      3.49063381
